<svg id="Layer_1" data-name="Layer 1" xmlns="http://www.w3.org/2000/svg" viewBox="0 0 2000 2000"><defs><style>.cls-1{fill:#203963;}.cls-2{fill:#ee7a28;}</style></defs><title>icon only without name</title><path class="cls-1" d="M922.64,598.4c23.12-27.34,23.07-55.14.19-84.51,24.16,2.75,46,6.49,67.11,13.09,132.88,41.55,222.45,127.78,266.71,260.23,12.35,37,17.43,75.19,18.12,114,.42,23.18-14.12,40.26-37.06,44.28-19.42,3.4-41.36-10.45-48.21-30.3-1.51-4.38-1.74-8.8-1.74-13.37-.17-97.58-40.06-176.25-114.66-237.73-42.86-35.32-92.34-56.53-147.43-64.37A15.08,15.08,0,0,1,922.64,598.4Z"/><path class="cls-1" d="M840.83,1209.88c-21.9,27.52-21.68,55.36-.94,85.25-10.7-1.74-19.5-2.64-28-4.64-145.32-33.91-245.62-119.54-297-260.35C500.86,992,494.31,952,493,911.3A43,43,0,0,1,535.88,867c24.35-.22,43.7,19,44.6,43.08,4.26,114.82,56.72,201.49,154.39,260.83,30.63,18.61,64.5,29.82,99.75,36.59C836.61,1207.87,838.91,1207.52,840.83,1209.88Z"/><path class="cls-1" d="M582.57,864.32c-27-25.58-55.15-28.51-86.24-7.18,3.23-23.28,7.72-44.76,14.49-65.61q59.72-184,239.6-255.68c38.69-15.33,79.5-22.34,121.18-23.42,21.19-.55,40.78,15.46,44.07,35.63,3.64,22.4-8.7,43.66-30.33,49.07-10.64,2.66-22.17,1.55-33.25,2.66-78.15,7.85-142.33,42.71-194.55,100.73-38.38,42.65-61.2,92.75-71.76,148.79C584.9,854,583.81,858.56,582.57,864.32Z"/><path class="cls-1" d="M1464.41,1481.85c-26.57,10.29-51.69,7-73.53-12.38q-103.68-92.15-207.2-184.43c-13.24-11.78-19.75-25.78-15.33-43.56.92-3.75.13-6.16-2.79-8.6-10.48-8.76-20.83-17.72-31.4-26.8a423.69,423.69,0,0,1-75.69,50c-53.18,27.69-110.27,40.54-170.08,40.89-21.68.13-40.23-20.41-40.26-43.34s17.91-42.93,40.23-43.05c93-.64,167.92-39.27,227.9-108.46,36.83-42.45,59.31-92,68.1-147.67.22-1.43.57-2.86,1-5.43,31.11,25.56,46,26.8,85.47,7.46-4.44,34-12.73,66.55-25.72,97.82a398,398,0,0,1-56.13,95.85c11.11,9.81,22.32,19.59,33.43,29.5,2.48,2.25,5,2.76,8.22,2.32,16.86-2.19,31.72,2.76,44.61,13.49q105.53,87.91,210.85,176.05C1522,1401.68,1509.62,1464.36,1464.41,1481.85Z"/><path class="cls-2" d="M884.58,674.23c40.52-.2,78,10,109.52,36.13,33.31,27.6,55.33,62.65,63.27,105.73,4.43,24.08,2.13,47.83-3,71.65-12.2,57.13-42,105.45-75.56,151.8-21,29.07-44.31,56.25-72.38,79.05-4.44,3.61-6.66,9.68-11.77,13.27-6,4.23-11.64,4.7-17.53.25-4-3-8.29-5.81-11.9-9.27-25.89-24.79-50.13-50.89-71.92-79.59-27.26-35.89-51.41-73.3-67.87-115.24-17.87-45.51-24.51-92.33-7.8-139.54C740.52,723.89,788,688.05,854.48,676.05a126.76,126.76,0,0,1,15-1.75C874.49,674,879.54,674.23,884.58,674.23Zm-4,285.49C942.67,961.09,998.47,915,997.84,846c-.55-60.79-46.28-107-110.25-108.86s-116,48.37-116.16,110.25C771.31,905.76,816.13,958.31,880.6,959.72Z"/><path class="cls-2" d="M882.9,934.41c-17.85.22-34.31-4.6-49.78-13.38-4.61-2.62-6.42-5.81-6.19-11.28,1-23.08,10.17-35.33,32.6-40.9,18.52-4.6,37.33-4.73,55.52,1.29,22.18,7.34,26.19,22,27.53,43,.31,4.8-3.83,5.91-6.84,7.7C920.88,929.65,901.91,934.44,882.9,934.41Z"/><path class="cls-2" d="M922.3,822.21c-.2,22.11-16.68,39.56-37.32,39.51-21.44,0-37.67-18-37.54-41.43.12-22.68,16-39,37.58-38.65C906.43,782,922.51,799.45,922.3,822.21Z"/></svg>