<svg id="Layer_1" data-name="Layer 1" xmlns="http://www.w3.org/2000/svg" viewBox="0 0 1508 496.76"><defs><style>.cls-1{fill:#fff;}</style></defs><title>Logo TML white</title><path class="cls-1" d="M464.86,795.42c11.78-13.93,11.75-28.09.1-43.05,12.3,1.4,23.44,3.31,34.18,6.67C566.84,780.2,612.46,824.13,635,891.6c6.29,18.83,8.88,38.3,9.23,58.09.21,11.81-7.19,20.51-18.88,22.55-9.89,1.73-21.07-5.32-24.56-15.44a20.55,20.55,0,0,1-.89-6.81c-.09-49.71-20.41-89.78-58.41-121.1-21.83-18-47-28.79-75.1-32.79A7.68,7.68,0,0,1,464.86,795.42Z" transform="translate(-246 -751.62)"/><path class="cls-1" d="M423.19,1106.91c-11.15,14-11,28.2-.48,43.43-5.45-.89-9.93-1.35-14.29-2.36-74-17.28-125.12-60.9-151.32-132.63C250,995.9,246.67,975.54,246,954.82a21.89,21.89,0,0,1,21.83-22.57,22.55,22.55,0,0,1,22.72,21.94c2.17,58.49,28.89,102.64,78.65,132.87,15.6,9.48,32.86,15.19,50.82,18.64C421,1105.89,422.21,1105.71,423.19,1106.91Z" transform="translate(-246 -751.62)"/><path class="cls-1" d="M291.63,930.88c-13.75-13-28.09-14.52-43.93-3.66a193.21,193.21,0,0,1,7.38-33.42q30.42-93.74,122.05-130.24c19.71-7.81,40.5-11.38,61.73-11.93,10.8-.28,20.78,7.87,22.45,18.15,1.86,11.41-4.43,22.24-15.45,25-5.42,1.36-11.3.79-16.94,1.36-39.81,4-72.51,21.76-99.11,51.31-19.55,21.73-31.18,47.25-36.56,75.8C292.82,925.61,292.26,927.95,291.63,930.88Z" transform="translate(-246 -751.62)"/><path class="cls-1" d="M740.84,1245.46c-13.54,5.24-26.33,3.59-37.46-6.31q-52.81-46.94-105.55-94c-6.74-6-10.06-13.13-7.81-22.19a3.81,3.81,0,0,0-1.42-4.38c-5.34-4.46-10.61-9-16-13.65a215.83,215.83,0,0,1-38.56,25.47c-27.09,14.1-56.17,20.65-86.64,20.83-11,.06-20.49-10.4-20.51-22.08s9.12-21.87,20.49-21.93c47.36-.32,85.54-20,116.09-55.25,18.76-21.62,30.21-46.89,34.69-75.22.11-.73.29-1.46.53-2.77,15.85,13,23.44,13.65,43.54,3.8a194.86,194.86,0,0,1-13.1,49.83,202.75,202.75,0,0,1-28.59,48.83c5.66,5,11.37,10,17,15a4.69,4.69,0,0,0,4.19,1.18c8.59-1.12,16.16,1.41,22.72,6.87q53.76,44.78,107.41,89.68C770.18,1204.62,763.88,1236.55,740.84,1245.46Z" transform="translate(-246 -751.62)"/><path class="cls-1" d="M445.47,834.05c20.64-.1,39.74,5.1,55.79,18.4,17,14.06,28.19,31.91,32.23,53.86,2.26,12.26,1.08,24.37-1.51,36.5-6.22,29.1-21.42,53.72-38.49,77.33-10.71,14.81-22.57,28.66-36.87,40.27-2.26,1.84-3.39,4.93-6,6.76-3.08,2.16-5.93,2.39-8.93.13a66.15,66.15,0,0,1-6.06-4.72A345.74,345.74,0,0,1,399,1022c-13.88-18.28-26.19-37.34-34.57-58.71-9.1-23.18-12.49-47-4-71.08,11.64-32.89,35.81-51.15,69.69-57.26a64.57,64.57,0,0,1,7.64-.89C440.34,833.93,442.91,834.05,445.47,834.05Zm-2,145.43c31.62.7,60-22.8,59.72-58-.28-31-23.57-54.5-56.16-55.45s-59.11,24.64-59.17,56.16C387.77,952,410.61,978.76,443.45,979.48Z" transform="translate(-246 -751.62)"/><path class="cls-1" d="M444.62,966.59a49.34,49.34,0,0,1-25.36-6.82A5.54,5.54,0,0,1,416.1,954c.49-11.76,5.18-18,16.61-20.84a50.29,50.29,0,0,1,28.28.66c11.3,3.74,13.34,11.22,14,21.92.16,2.44-1.95,3-3.48,3.92A53.55,53.55,0,0,1,444.62,966.59Z" transform="translate(-246 -751.62)"/><path class="cls-1" d="M464.69,909.43c-.1,11.26-8.5,20.15-19,20.13-10.92,0-19.19-9.15-19.12-21.1.06-11.55,8.13-19.85,19.14-19.69S464.8,897.84,464.69,909.43Z" transform="translate(-246 -751.62)"/><path class="cls-1" d="M760.38,898.46V843H738.51V830.1h59.56V843H776.2v55.46Z" transform="translate(-246 -751.62)"/><path class="cls-1" d="M806.57,898.46V830.1h29.59a38.45,38.45,0,0,1,15.82,3,23.18,23.18,0,0,1,10.25,8.54,23.86,23.86,0,0,1,3.61,13.28A23.44,23.44,0,0,1,862.22,868,23,23,0,0,1,852,876.49a39,39,0,0,1-15.82,2.93h-20.8l7-6.93v26Zm15.82-24.22-7-7.42h19.92q7.32,0,10.94-3.17a11,11,0,0,0,3.61-8.74q0-5.66-3.61-8.79T835.27,843H815.35l7-7.52ZM850,898.46l-17.09-24.8h16.89l17.28,24.8Z" transform="translate(-246 -751.62)"/><path class="cls-1" d="M869.35,898.46l30.47-68.35h15.62L946,898.46H929.4l-25-60.35h6.25l-25.1,60.35Zm15.23-14.65,4.2-12h35.15l4.3,12Z" transform="translate(-246 -751.62)"/><path class="cls-1" d="M984.86,899.63a40.93,40.93,0,0,1-14.7-2.59,34.13,34.13,0,0,1-19.53-18.6,37.41,37.41,0,0,1,0-28.32,33.88,33.88,0,0,1,7.81-11.23,35.18,35.18,0,0,1,11.77-7.37A40.82,40.82,0,0,1,985,828.93,40.39,40.39,0,0,1,1001,832a31.32,31.32,0,0,1,12.06,9l-10.16,9.37a23.79,23.79,0,0,0-7.81-6,21.94,21.94,0,0,0-9.37-2A24,24,0,0,0,977,844a19.91,19.91,0,0,0-6.93,4.49,20.52,20.52,0,0,0-4.54,6.93,25.29,25.29,0,0,0,0,17.77A20.5,20.5,0,0,0,970,880.1a19.9,19.9,0,0,0,6.93,4.49,24,24,0,0,0,8.79,1.56,21.93,21.93,0,0,0,9.37-2,23.25,23.25,0,0,0,7.81-6.1l10.16,9.37A31.73,31.73,0,0,1,1001,896.5,40.1,40.1,0,0,1,984.86,899.63Z" transform="translate(-246 -751.62)"/><path class="cls-1" d="M1023.73,898.46V830.1h15.72v68.35Zm14.16-15.62-.88-18.26,32.71-34.47h17.58l-29.49,31.74-8.79,9.37Zm32.61,15.62-24.31-29.78,10.35-11.23,32.42,41Z" transform="translate(-246 -751.62)"/><path class="cls-1" d="M748.37,983.32V915h8L787,966.62h-4.3L813,915h8l.1,68.35h-9.37l-.1-53.61h2.25l-27,45.31h-4.49L755.3,929.71h2.44v53.61Z" transform="translate(-246 -751.62)"/><path class="cls-1" d="M858.12,983.32V957.15l2.25,6.05L831,915h10.45l24.7,40.72h-5.66L885.27,915h9.67L865.64,963.2l2.15-6.05v26.17Z" transform="translate(-246 -751.62)"/><path class="cls-1" d="M746.22,1068.18V999.82H762v55.46h34.27v12.89Z" transform="translate(-246 -751.62)"/><path class="cls-1" d="M837.23,1069.35a41.56,41.56,0,0,1-15-2.64,35.46,35.46,0,0,1-11.91-7.42,33.86,33.86,0,0,1-7.81-11.23,36.92,36.92,0,0,1,0-28.12,33.55,33.55,0,0,1,7.86-11.23,36.12,36.12,0,0,1,11.91-7.42,43.24,43.24,0,0,1,29.73,0,35.73,35.73,0,0,1,11.82,7.42,35.68,35.68,0,0,1,7.86,39.4,33.83,33.83,0,0,1-7.86,11.23,36.1,36.1,0,0,1-11.82,7.37A40.52,40.52,0,0,1,837.23,1069.35Zm-.1-13.48a22.3,22.3,0,0,0,8.45-1.56,20.24,20.24,0,0,0,6.79-4.49,20.5,20.5,0,0,0,4.54-6.93,25.29,25.29,0,0,0,0-17.77,20.91,20.91,0,0,0-4.49-6.93,19.63,19.63,0,0,0-6.79-4.49,22.69,22.69,0,0,0-8.5-1.56,22.31,22.31,0,0,0-8.45,1.56,20.24,20.24,0,0,0-6.79,4.49,20.52,20.52,0,0,0-4.54,6.93,25.16,25.16,0,0,0,0,17.72,20.76,20.76,0,0,0,4.49,7,19.6,19.6,0,0,0,6.79,4.49A22.66,22.66,0,0,0,837.13,1055.87Z" transform="translate(-246 -751.62)"/><path class="cls-1" d="M908.9,1069.35a55.77,55.77,0,0,1-15.72-2.2,36.77,36.77,0,0,1-12.11-5.71l5.37-11.91a39.17,39.17,0,0,0,10.4,5.13,38.22,38.22,0,0,0,12.16,2,25.29,25.29,0,0,0,7.57-.93,8.86,8.86,0,0,0,4.25-2.59,5.82,5.82,0,0,0,1.37-3.81A5.15,5.15,0,0,0,920,1045a17.63,17.63,0,0,0-5.66-2.64q-3.52-1-7.76-2t-8.5-2.29a35.87,35.87,0,0,1-7.76-3.52,17.28,17.28,0,0,1-5.71-5.66,16.69,16.69,0,0,1-2.2-9,19.06,19.06,0,0,1,3.17-10.69,21.7,21.7,0,0,1,9.57-7.71q6.39-2.88,16.06-2.88a53.76,53.76,0,0,1,12.69,1.51,36.65,36.65,0,0,1,11,4.54l-4.88,12a41.63,41.63,0,0,0-9.57-4.05,35.21,35.21,0,0,0-9.37-1.32,22.18,22.18,0,0,0-7.52,1.07,8.87,8.87,0,0,0-4.2,2.78,6.45,6.45,0,0,0-1.27,4,5.05,5.05,0,0,0,2.15,4.25A16.92,16.92,0,0,0,906,1026q3.51,1,7.76,2t8.49,2.25a32.92,32.92,0,0,1,7.76,3.42,17.27,17.27,0,0,1,5.71,5.66,16.5,16.5,0,0,1,2.2,8.89,18.48,18.48,0,0,1-3.22,10.55,22.52,22.52,0,0,1-9.62,7.71Q918.66,1069.35,908.9,1069.35Z" transform="translate(-246 -751.62)"/><path class="cls-1" d="M961.92,1068.18v-55.46H940V999.82h59.56v12.89H977.74v55.46Z" transform="translate(-246 -751.62)"/><path class="cls-1" d="M1251.45,927v-55.1h-21.57v-7.82h52v7.82h-21.57V927Z" transform="translate(-246 -751.62)"/><path class="cls-1" d="M1319.23,927.75a36.06,36.06,0,0,1-13.35-2.43,31.89,31.89,0,0,1-10.65-6.79,31.31,31.31,0,0,1-7-10.2,33.63,33.63,0,0,1,0-25.53,31.34,31.34,0,0,1,7-10.2,32,32,0,0,1,10.61-6.79,38.13,38.13,0,0,1,26.65,0,32.08,32.08,0,0,1,10.61,6.74,30.49,30.49,0,0,1,7,10.2,34.66,34.66,0,0,1,0,25.71,30.46,30.46,0,0,1-7,10.2,32,32,0,0,1-10.61,6.74A36,36,0,0,1,1319.23,927.75Zm0-8a25.54,25.54,0,0,0,9.66-1.8,23,23,0,0,0,7.73-5.08,23.65,23.65,0,0,0,5.12-7.68,26,26,0,0,0,0-19.24,23.69,23.69,0,0,0-5.12-7.68,23,23,0,0,0-7.73-5.08,27.12,27.12,0,0,0-19.42,0,23.34,23.34,0,0,0-12.94,12.76,26,26,0,0,0,0,19.24,23.34,23.34,0,0,0,12.94,12.76A25.78,25.78,0,0,0,1319.23,919.75Z" transform="translate(-246 -751.62)"/><path class="cls-1" d="M1394.73,927.75a36.57,36.57,0,0,1-13.39-2.38,31.2,31.2,0,0,1-17.62-16.94,34.09,34.09,0,0,1,0-25.71,31,31,0,0,1,7.06-10.2,31.93,31.93,0,0,1,10.65-6.74,39.51,39.51,0,0,1,27.15,0,27,27,0,0,1,10.52,7.28l-5.57,5.57a24.81,24.81,0,0,0-8.4-5.53,27.08,27.08,0,0,0-9.84-1.75,27.46,27.46,0,0,0-10,1.8,23.91,23.91,0,0,0-8,5,22.38,22.38,0,0,0-5.21,7.68,26,26,0,0,0,0,19.24,22.85,22.85,0,0,0,5.21,7.73,23.62,23.62,0,0,0,8,5.08,27.07,27.07,0,0,0,10,1.8,29.82,29.82,0,0,0,9.66-1.57,23.76,23.76,0,0,0,8.58-5.26l5.12,6.83a31.92,31.92,0,0,1-10.92,6A41.64,41.64,0,0,1,1394.73,927.75Zm15.19-9.17V895.21h8.63v24.54Z" transform="translate(-246 -751.62)"/><path class="cls-1" d="M1444.71,919.21h36.67V927h-45.66V864.11h44.4v7.82h-35.41Zm-.81-28h32.36v7.64H1443.9Z" transform="translate(-246 -751.62)"/><path class="cls-1" d="M1508.43,927v-55.1h-21.57v-7.82h52v7.82h-21.57V927Z" transform="translate(-246 -751.62)"/><path class="cls-1" d="M1557.69,927h-9V864.11h9Zm36.94-28h-37.84v-7.82h37.84Zm-.81-34.88h9V927h-9Z" transform="translate(-246 -751.62)"/><path class="cls-1" d="M1630.68,919.21h36.67V927h-45.66V864.11h44.4v7.82h-35.41Zm-.81-28h32.36v7.64h-32.36Z" transform="translate(-246 -751.62)"/><path class="cls-1" d="M1681.91,927V864.11h24.54a34.52,34.52,0,0,1,14.11,2.61,20,20,0,0,1,9,7.55A21.48,21.48,0,0,1,1732.7,886a21.25,21.25,0,0,1-3.15,11.73,20.09,20.09,0,0,1-9,7.51,34.51,34.51,0,0,1-14.11,2.61h-19.59l4-4.13V927Zm9-22.38-4-4.4h19.32q8.63,0,13.08-3.73t4.45-10.47q0-6.74-4.45-10.43t-13.08-3.68h-19.32l4-4.49ZM1724,927l-16-22.83h9.62L1733.78,927Z" transform="translate(-246 -751.62)"/><path class="cls-1" d="M1742.58,940.33l4.5-18.16,1.17,5.21a6.19,6.19,0,0,1-4.36-1.62,5.7,5.7,0,0,1-1.75-4.41,5.91,5.91,0,0,1,6-6.11,5.48,5.48,0,0,1,4.22,1.75,6.18,6.18,0,0,1,1.62,4.36,11.2,11.2,0,0,1-.14,1.75,17.94,17.94,0,0,1-.45,2q-.32,1.13-.94,2.74l-4.22,12.49Z" transform="translate(-246 -751.62)"/><path class="cls-1" d="M1253.43,1034.89l-21-62.92h9.26L1261,1030h-4.67l20-58.07h8.27l19.59,58.07h-4.49L1319.32,972h8.54l-21,62.92h-9.44L1279,981h2.43L1263,1034.89Z" transform="translate(-246 -751.62)"/><path class="cls-1" d="M1347.81,1027.07h36.67v7.82h-45.66V972h44.4v7.82h-35.41Zm-.81-28h32.36v7.64H1347Z" transform="translate(-246 -751.62)"/><path class="cls-1" d="M1432.21,1034.89h-9V972h44.4v7.82h-35.41Zm-.9-33.17h32.45v7.73h-32.45Z" transform="translate(-246 -751.62)"/><path class="cls-1" d="M1480.3,1034.89V972h9v62.92Z" transform="translate(-246 -751.62)"/><path class="cls-1" d="M1508.16,1034.89V972h7.37l41.62,51.68h-3.86V972h9v62.92h-7.37l-41.62-51.68h3.87v51.68Z" transform="translate(-246 -751.62)"/><path class="cls-1" d="M1581.15,1034.89V972h26.52a38.27,38.27,0,0,1,17.75,4,29.25,29.25,0,0,1,12,11.06,33.82,33.82,0,0,1,0,32.9,29.23,29.23,0,0,1-12,11.06,38.26,38.26,0,0,1-17.75,4Zm9-7.82h17a29,29,0,0,0,13.53-3,21.57,21.57,0,0,0,8.85-8.31,25.94,25.94,0,0,0,0-24.76,21.67,21.67,0,0,0-8.85-8.27,29,29,0,0,0-13.53-3h-17Z" transform="translate(-246 -751.62)"/><rect class="cls-1" x="910.72" y="32.95" width="5.53" height="329.14"/></svg>